/vscmnt/brussel_pixiu_data/_data_brussel/112/vsc11236/PredSimResults/SUBJ10mtu3D/SUBJ10mtu3D_12829358.mot
version=1
nRows=4
nColumns=50
inDegrees=yes
endheader
                time	         pelvis_tilt	         pelvis_list	     pelvis_rotation	           pelvis_tx	           pelvis_ty	           pelvis_tz	       hip_flexion_r	     hip_adduction_r	      hip_rotation_r	        knee_angle_r	       ankle_angle_r	         mtp_angle_r	       hip_flexion_l	     hip_adduction_l	      hip_rotation_l	        knee_angle_l	       ankle_angle_l	         mtp_angle_l	    lumbar_extension	      lumbar_bending	     lumbar_rotation	 ercspn_r/activation	 intobl_r/activation	 extobl_r/activation	    abd_r/activation	    add_r/activation	hamstrings_r/activation	bifemsh_r/activation	glut_max_r/activation	iliopsoas_r/activation	rect_fem_r/activation	  vasti_r/activation	gastroc_r/activation	 soleus_r/activation	tib_ant_r/activation	 ercspn_l/activation	 intobl_l/activation	 extobl_l/activation	    abd_l/activation	    add_l/activation	hamstrings_l/activation	bifemsh_l/activation	glut_max_l/activation	iliopsoas_l/activation	rect_fem_l/activation	  vasti_l/activation	gastroc_l/activation	 soleus_l/activation	tib_ant_l/activation	
          0.00000000	         -3.62536204	         -2.94562143	          9.59618742	          0.00000000	          0.82773047	         -0.01234517	         27.79644977	         -0.48521377	         -6.46224920	         -3.45032034	          7.13467172	          0.25432799	        -15.04301616	         -3.57679654	          5.01138502	         -8.10470552	          9.11936487	         25.50582589	         -8.53454135	          1.51857740	         -3.94379319	          0.08938678	          0.16428610	          0.02042190	          0.01932786	          0.10350744	          0.03449369	          0.16385989	          0.01000388	          0.06463620	          0.01001279	          0.01000622	          0.01001556	          0.01000518	          0.26227138	          0.03401335	          0.01000185	          0.01000311	          0.03847587	          0.01864132	          0.01913044	          0.12799372	          0.02747178	          0.29904925	          0.01003542	          0.01000708	          0.21333284	          0.22678078	          0.01778822	
          0.01100687	         -3.68947795	         -2.78590164	          9.40230681	          0.01551048	          0.82618014	         -0.01212133	         27.78471412	         -0.26982949	         -5.34595321	         -4.98398414	          6.84551157	          0.25381781	        -15.07223592	         -3.37679105	          4.33023721	         -9.98779576	          8.47934838	         27.11974817	         -8.32525644	          1.87955019	         -4.12945420	          0.07553211	          0.13970789	          0.01725668	          0.01633274	          0.14381977	          0.03688051	          0.13847814	          0.05172916	          0.05461729	          0.01001490	          0.01000456	          0.01892953	          0.01656748	          0.26595387	          0.07438832	          0.01000382	          0.01001987	          0.03251175	          0.05031277	          0.01637244	          0.10815441	          0.02321358	          0.30231897	          0.01001738	          0.01048506	          0.18026412	          0.21094791	          0.01503094	
          0.02201374	         -3.73866916	         -2.63601842	          9.15293312	          0.03128548	          0.82473683	         -0.01184887	         27.61283168	         -0.07194943	         -4.26350497	         -6.47436886	          6.51643529	          0.24467904	        -14.96346706	         -3.17763610	          3.59041771	        -12.17208217	          7.75133154	         28.62109049	         -8.10168962	          2.26639864	         -4.28956589	          0.07321065	          0.11805519	          0.01458215	          0.07145642	          0.13393979	          0.04528076	          0.11702518	          0.05432668	          0.04615134	          0.01000460	          0.01000133	          0.01599629	          0.01400003	          0.30460387	          0.09573692	          0.01000123	          0.01000470	          0.02747213	          0.04251754	          0.01384189	          0.09139045	          0.01961539	          0.29163735	          0.01002672	          0.01001009	          0.15232128	          0.18522397	          0.01270111	
          0.03302062	         -3.77450830	         -2.48893474	          8.84841754	          0.04712244	          0.82358047	         -0.01148311	         27.33500872	          0.14214163	         -3.26980205	         -7.77517113	          6.09089277	          0.23324478	        -14.64122945	         -2.97807532	          2.79669017	        -14.74816895	          6.90619913	         29.90602641	         -7.88595750	          2.66161419	         -4.42382890	          0.08232224	          0.09975609	          0.01232237	          0.11550055	          0.15048725	          0.04143667	          0.09888948	          0.07609540	          0.03899768	          0.01000776	          0.01000822	          0.01351853	          0.01183307	          0.32317404	          0.12835390	          0.01000177	          0.01000407	          0.02321369	          0.04739215	          0.01250919	          0.07722519	          0.01657496	          0.27676465	          0.01001609	          0.01187993	          0.12870984	          0.15651337	          0.01073257	
